<?xml version="1.0" encoding="iso-8859-1"?>
<!-- Uploaded to: SVG Repo, www.svgrepo.com, Generator: SVG Repo Mixer Tools -->
<svg height="800px" width="800px" version="1.1" id="Layer_1" xmlns="http://www.w3.org/2000/svg" xmlns:xlink="http://www.w3.org/1999/xlink" 
	 viewBox="0 0 496.246 496.246" xml:space="preserve">
<path style="fill:#FF7F00;" d="M471.135,68.332H250.785v6.451c0-15.328-12.446,12.69-27.758,12.69H93.468
	c-15.321,0-27.75,12.43-27.75,27.75L4.427,321.118c0,15.344,12.414,27.758,27.758,27.758H172.93h50.089h248.115
	c6.845,0,12.383-5.537,12.383-12.367V80.699C483.525,73.862,477.987,68.332,471.135,68.332z"/>
<path style="fill:#E56505;" d="M18.188,274.857L4.427,321.119c0,15.344,12.414,27.758,27.758,27.758H172.93h50.089h248.115
	c6.845,0,12.383-5.537,12.383-12.367v-61.653H18.188z"/>
<path style="fill:#528099;" d="M153.624,114.475H65.788c0,0.252-0.071,0.496-0.071,0.756l-26.726,89.773
	c1.434,0.221,2.867,0.457,4.372,0.457h110.261c15.321,0,27.758-12.43,27.758-27.758v-35.47
	C181.382,126.889,168.944,114.475,153.624,114.475z"/>
<path style="fill:#C1E5F4;" d="M54.918,282.199c0,14.249-3.277,25.813-7.333,25.813c-4.033,0-7.318-11.571-7.318-25.813
	c0-14.281,3.285-25.836,7.318-25.836C51.641,256.362,54.918,267.918,54.918,282.199z"/>
<path style="fill:#D9F5FF;" d="M47.584,308.019c-4.033,0-7.318-11.571-7.318-25.813c0-14.281,3.285-25.836,7.318-25.836"/>
<g>
	<path style="fill:#1D5777;" d="M108.19,205.462l71.719-71.719c-2.576-7.971-8.562-14.336-16.321-17.337l-89.049,89.056H108.19z"/>
	<path style="fill:#1D5777;" d="M125.424,205.462h28.199c15.321,0,27.758-12.43,27.758-27.758v-28.199L125.424,205.462z"/>
	<path style="fill:#1D5777;" d="M93.538,114.475h-27.75c0,0.252-0.071,0.496-0.071,0.756l-11.485,38.534L93.538,114.475z"/>
	<path style="fill:#1D5777;" d="M496.246,359.944c0,5.711-4.632,10.342-10.342,10.342H10.335C4.608,370.294,0,365.655,0,359.944
		V324.34c0-5.727,4.608-10.342,10.335-10.342h475.561c5.719,0,10.342,4.624,10.342,10.342v35.604H496.246z"/>
</g>
<path style="fill:#1E759B;" d="M485.904,313.998H10.335C4.608,313.998,0,318.622,0,324.348v7.845
	c0,5.711,4.608,10.335,10.335,10.335h475.561c5.719,0,10.342-4.632,10.342-10.335v-7.845
	C496.246,318.622,491.615,313.998,485.904,313.998z"/>
<path style="fill:#FFC41F;" d="M135.459,376.596c0,19.259-15.636,34.895-34.911,34.895c-19.259,0-34.895-15.628-34.895-34.895
	c0-19.291,15.628-34.926,34.895-34.926C119.824,341.669,135.459,357.297,135.459,376.596z"/>
<path style="fill:#FFA522;" d="M100.557,341.669c19.267,0,34.911,15.628,34.911,34.926c0,19.259-15.636,34.895-34.911,34.895"/>
<path style="fill:#1A3D5B;" d="M100.557,427.914c-28.302,0-51.326-23.032-51.326-51.326c0-28.325,23.024-51.342,51.326-51.342
	c28.31,0,51.334,23.016,51.334,51.342C151.883,404.882,128.859,427.914,100.557,427.914z M100.557,358.101
	c-10.185,0-18.471,8.302-18.471,18.495c0,10.177,8.287,18.464,18.471,18.464c10.193,0,18.495-8.287,18.495-18.464
	C119.044,366.403,110.75,358.101,100.557,358.101z"/>
<circle style="fill:#FFC41F;" cx="402.038" cy="376.58" r="34.911"/>
<path style="fill:#FFA522;" d="M377.328,351.894c13.627-13.619,35.745-13.619,49.365,0c13.635,13.627,13.619,35.738,0,49.373"/>
<path style="fill:#1A3D5B;" d="M438.319,412.877c-20.023,20.023-52.586,20.023-72.609,0c-20.015-20.023-20.015-52.571,0-72.586
	c20.023-20.039,52.586-20.039,72.609,0C458.327,360.306,458.327,392.854,438.319,412.877z M388.962,363.504
	c-7.223,7.207-7.223,18.928,0,26.136c7.2,7.207,18.913,7.207,26.12,0s7.207-18.928,0-26.136
	C407.875,356.313,396.162,356.313,388.962,363.504z"/>
<g>
	<path style="fill:#FFD400;" d="M444.44,151.308c0,4.97-4.033,8.995-9.011,8.995H291.454c-4.97,0-9.019-4.025-9.019-8.995l0,0
		c0-4.97,4.049-9.003,9.019-9.003h143.974C440.407,142.304,444.44,146.337,444.44,151.308L444.44,151.308z"/>
	<path style="fill:#FFD400;" d="M408.151,187.573c0,4.986-4.033,9.011-9.003,9.011h-143.99c-4.962,0-8.995-4.025-8.995-9.011l0,0
		c0-4.97,4.033-8.995,8.995-8.995h143.99C404.126,178.586,408.151,182.611,408.151,187.573L408.151,187.573z"/>
	<path style="fill:#FFD400;" d="M371.885,223.862c0,4.986-4.049,9.011-9.019,9.011h-143.99c-4.955,0-8.995-4.025-8.995-9.011l0,0
		c0-4.97,4.041-8.995,8.995-8.995h143.99C367.837,214.867,371.885,218.892,371.885,223.862L371.885,223.862z"/>
</g>
</svg>