<svg aria-hidden="true" style="position: absolute; width: 0; height: 0; overflow: hidden;" version="1.1" xmlns="http://www.w3.org/2000/svg" xmlns:xlink="http://www.w3.org/1999/xlink">
<defs>
<symbol id="logo" viewBox="0 0 136 16">
<path d="M135.393 7.18744H131.785C131.766 6.96491 131.688 6.77314 131.55 6.61216C131.413 6.45117 131.235 6.32807 131.018 6.24284C130.804 6.15288 130.568 6.1079 130.307 6.1079C129.971 6.1079 129.682 6.16945 129.441 6.29256C129.199 6.41566 129.081 6.59085 129.086 6.81813C129.081 6.97911 129.15 7.12826 129.292 7.26557C129.438 7.40288 129.72 7.50941 130.137 7.58517L132.353 7.9829C133.47 8.1865 134.301 8.52977 134.846 9.01273C135.395 9.49095 135.672 10.1325 135.677 10.9374C135.672 11.714 135.44 12.3887 134.981 12.9616C134.526 13.5298 133.903 13.9701 133.113 14.2826C132.327 14.5904 131.429 14.7443 130.421 14.7443C128.754 14.7443 127.45 14.4034 126.508 13.7215C125.57 13.0397 125.047 12.1401 124.938 11.0227H128.83C128.882 11.3683 129.053 11.6358 129.341 11.8252C129.635 12.0099 130.004 12.1022 130.449 12.1022C130.809 12.1022 131.105 12.0407 131.337 11.9176C131.574 11.7945 131.695 11.6193 131.699 11.392C131.695 11.1837 131.59 11.0179 131.387 10.8948C131.188 10.7717 130.875 10.6723 130.449 10.5965L128.518 10.2556C127.405 10.0615 126.572 9.69218 126.018 9.14767C125.464 8.60316 125.189 7.90241 125.194 7.0454C125.189 6.28782 125.388 5.64625 125.79 5.12068C126.197 4.59038 126.777 4.18792 127.53 3.9133C128.288 3.63394 129.185 3.49426 130.222 3.49426C131.799 3.49426 133.042 3.82097 133.951 4.47438C134.865 5.12778 135.345 6.03214 135.393 7.18744Z" fill="#475467"/>
<path d="M116.415 11.9602L116.443 7.30114H116.955L119.597 3.63636H124L119.568 9.34659H118.46L116.415 11.9602ZM112.892 14.5455V0H116.813V14.5455H112.892ZM119.625 14.5455L117.125 10.2273L119.682 7.44318L124.114 14.5455H119.625Z" fill="#475467"/>
<path d="M105.619 14.7443C104.435 14.7443 103.422 14.5099 102.579 14.0411C101.736 13.5677 101.09 12.9095 100.64 12.0667C100.19 11.2192 99.9654 10.2367 99.9654 9.11926C99.9654 8.00184 100.19 7.02172 100.64 6.17892C101.09 5.33138 101.736 4.67324 102.579 4.20449C103.422 3.731 104.435 3.49426 105.619 3.49426C106.689 3.49426 107.615 3.68839 108.396 4.07665C109.182 4.46017 109.79 5.00468 110.221 5.71017C110.652 6.41093 110.87 7.23479 110.875 8.18176H107.238C107.186 7.60885 107.02 7.17324 106.741 6.87494C106.466 6.57191 106.111 6.4204 105.676 6.4204C105.335 6.4204 105.036 6.51983 104.781 6.71869C104.525 6.91282 104.326 7.20875 104.184 7.60648C104.042 7.99947 103.971 8.49426 103.971 9.09085C103.971 9.68744 104.042 10.1846 104.184 10.5823C104.326 10.9753 104.525 11.2713 104.781 11.4701C105.036 11.6642 105.335 11.7613 105.676 11.7613C105.964 11.7613 106.22 11.695 106.443 11.5624C106.665 11.4251 106.845 11.2263 106.982 10.9659C107.125 10.7007 107.21 10.3787 107.238 9.99994H110.875C110.86 10.9611 110.64 11.7992 110.214 12.5141C109.788 13.2244 109.184 13.7736 108.403 14.1619C107.626 14.5501 106.698 14.7443 105.619 14.7443Z" fill="#475467"/>
<path d="M94.0487 9.77272V3.63635H97.9692V14.5454H94.2476V12.4716H94.1339C93.8972 13.1676 93.4829 13.7121 92.8911 14.1051C92.2992 14.4934 91.5961 14.6875 90.7817 14.6875C90.0194 14.6875 89.3517 14.5123 88.7788 14.1619C88.2106 13.8115 87.7679 13.3286 87.4507 12.7131C87.1382 12.0975 86.9796 11.392 86.9749 10.5966V3.63635H90.8953V9.77272C90.9 10.3125 91.0374 10.7363 91.3072 11.044C91.5819 11.3518 91.9654 11.5057 92.4578 11.5057C92.7845 11.5057 93.0662 11.437 93.303 11.2997C93.5445 11.1577 93.7291 10.9588 93.857 10.7031C93.9895 10.4427 94.0535 10.1326 94.0487 9.77272Z" fill="#475467"/>
<path d="M77.903 14.5454V3.63631H81.7098V5.71017H81.8234C82.0223 4.94313 82.3372 4.38205 82.768 4.02693C83.2036 3.67182 83.7126 3.49426 84.295 3.49426C84.4655 3.49426 84.6336 3.50847 84.7993 3.53688C84.9697 3.56055 85.1331 3.59606 85.2894 3.64341V6.98858C85.0952 6.92229 84.8561 6.87258 84.572 6.83943C84.2879 6.80629 84.0441 6.78972 83.8405 6.78972C83.457 6.78972 83.1113 6.87731 82.8036 7.0525C82.5005 7.22296 82.2614 7.46443 82.0862 7.77693C81.911 8.0847 81.8234 8.44691 81.8234 8.86358V14.5454H77.903Z" fill="#475467"/>
<path d="M64.4508 3.18182V0H77.0928V3.18182H72.7178V14.5455H68.8258V3.18182H64.4508Z" fill="#475467"/>
<path d="M62.5078 0V14.5455H58.5874V0H62.5078Z" fill="#101828"/>
<path d="M51.2467 14.7443C50.0819 14.7443 49.0781 14.5217 48.2353 14.0766C47.3972 13.6268 46.7509 12.9829 46.2964 12.1448C45.8466 11.302 45.6217 10.2935 45.6217 9.11926C45.6217 7.99237 45.8489 7.00752 46.3035 6.16472C46.758 5.32191 47.3996 4.66614 48.2282 4.19739C49.0568 3.72864 50.0346 3.49426 51.1614 3.49426C51.9853 3.49426 52.731 3.6221 53.3987 3.87778C54.0663 4.13347 54.6368 4.50515 55.1103 4.99284C55.5838 5.4758 55.9484 6.06292 56.2041 6.75421C56.4597 7.44549 56.5876 8.22438 56.5876 9.09085V9.99994H46.8433V7.84085H52.9796C52.9749 7.52835 52.8944 7.25373 52.7382 7.01699C52.5866 6.77551 52.3807 6.58849 52.1203 6.45591C51.8646 6.3186 51.5734 6.24994 51.2467 6.24994C50.9294 6.24994 50.6382 6.3186 50.3731 6.45591C50.1079 6.58849 49.8949 6.77314 49.7339 7.00989C49.5776 7.24663 49.4948 7.52362 49.4853 7.84085V10.1704C49.4853 10.5208 49.5587 10.8333 49.7055 11.1079C49.8523 11.3825 50.063 11.598 50.3376 11.7542C50.6122 11.9105 50.9436 11.9886 51.3319 11.9886C51.6018 11.9886 51.848 11.9507 52.0705 11.8749C52.2978 11.7992 52.4919 11.6903 52.6529 11.5482C52.8139 11.4015 52.9323 11.2263 53.008 11.0227H56.5876C56.4645 11.7802 56.1733 12.4384 55.714 12.9971C55.2547 13.5511 54.6463 13.982 53.8887 14.2897C53.1359 14.5927 52.2552 14.7443 51.2467 14.7443Z" fill="#101828"/>
<path d="M44.8364 3.63635L41.1716 14.5454H36.6261L32.9614 3.63635H37.0807L38.842 10.8523H38.9557L40.717 3.63635H44.8364Z" fill="#101828"/>
<path d="M25.056 14.7159C24.36 14.7159 23.7445 14.6022 23.2094 14.3749C22.6791 14.1429 22.2625 13.7926 21.9594 13.3238C21.6564 12.8551 21.5049 12.2585 21.5049 11.534C21.5049 10.9374 21.6067 10.4284 21.8103 10.007C22.0139 9.58091 22.298 9.2329 22.6626 8.96301C23.0271 8.69313 23.4509 8.48716 23.9339 8.34511C24.4216 8.20307 24.9471 8.11074 25.5106 8.06813C26.1214 8.02078 26.6114 7.96396 26.9807 7.89767C27.3548 7.82665 27.6247 7.72958 27.7904 7.60648C27.9561 7.47864 28.039 7.31055 28.039 7.10222V7.07381C28.039 6.78972 27.9301 6.57191 27.7123 6.4204C27.4945 6.26888 27.2151 6.19313 26.8742 6.19313C26.5001 6.19313 26.1948 6.27599 25.958 6.44171C25.726 6.60269 25.5863 6.85127 25.539 7.18744H21.931C21.9784 6.52456 22.1891 5.91377 22.5631 5.35506C22.9419 4.79161 23.4935 4.3418 24.218 4.00563C24.9424 3.66472 25.8467 3.49426 26.931 3.49426C27.7123 3.49426 28.413 3.58659 29.0333 3.77125C29.6536 3.95118 30.1815 4.20449 30.6171 4.53119C31.0527 4.85316 31.3841 5.23195 31.6114 5.66756C31.8434 6.09843 31.9594 6.56718 31.9594 7.07381V14.5454H28.2947V13.0113H28.2094C27.9916 13.4185 27.7265 13.7476 27.414 13.9985C27.1062 14.2495 26.7535 14.4318 26.3557 14.5454C25.9627 14.659 25.5295 14.7159 25.056 14.7159ZM26.3344 12.2443C26.6327 12.2443 26.9121 12.1827 27.1725 12.0596C27.4376 11.9365 27.6531 11.7589 27.8188 11.5269C27.9845 11.2949 28.0674 11.0132 28.0674 10.6818V9.77267C27.9632 9.81528 27.8519 9.85553 27.7336 9.89341C27.6199 9.93129 27.4968 9.9668 27.3643 9.99994C27.2364 10.0331 27.0991 10.0639 26.9523 10.0923C26.8103 10.1207 26.6611 10.1467 26.5049 10.1704C26.2019 10.2177 25.9533 10.2959 25.7591 10.4048C25.5697 10.5089 25.4277 10.6391 25.333 10.7954C25.243 10.9469 25.1981 11.1174 25.1981 11.3068C25.1981 11.6098 25.3046 11.8418 25.5177 12.0028C25.7307 12.1638 26.003 12.2443 26.3344 12.2443Z" fill="#101828"/>
<path d="M13.4522 14.5454V3.63631H17.259V5.71017H17.3727C17.5715 4.94313 17.8864 4.38205 18.3173 4.02693C18.7529 3.67182 19.2619 3.49426 19.8443 3.49426C20.0147 3.49426 20.1828 3.50847 20.3485 3.53688C20.519 3.56055 20.6823 3.59606 20.8386 3.64341V6.98858C20.6444 6.92229 20.4053 6.87258 20.1212 6.83943C19.8372 6.80629 19.5933 6.78972 19.3897 6.78972C19.0062 6.78972 18.6605 6.87731 18.3528 7.0525C18.0497 7.22296 17.8106 7.46443 17.6354 7.77693C17.4603 8.0847 17.3727 8.44691 17.3727 8.86358V14.5454H13.4522Z" fill="#101828"/>
<path d="M0 3.18182V0H12.642V3.18182H8.26705V14.5455H4.375V3.18182H0Z" fill="#101828"/>
</symbol>
<symbol id="tv" viewBox="0 0 32 32">
<path d="M0 8C0 8 0 4 4 4H28C28 4 32 4 32 8V20C32 20 32 24 28 24H20C20 25.3333 20.1667 26.3333 20.5 27H22C22.2652 27 22.5196 27.1054 22.7071 27.2929C22.8946 27.4804 23 27.7348 23 28C23 28.2652 22.8946 28.5196 22.7071 28.7071C22.5196 28.8946 22.2652 29 22 29H10C9.73478 29 9.48043 28.8946 9.29289 28.7071C9.10536 28.5196 9 28.2652 9 28C9 27.7348 9.10536 27.4804 9.29289 27.2929C9.48043 27.1054 9.73478 27 10 27H11.5C11.8333 26.3333 12 25.3333 12 24H4C4 24 0 24 0 20V8ZM2.796 6.29C2.57644 6.44309 2.4012 6.65145 2.288 6.894C2.11952 7.24697 2.02168 7.62948 2 8.02V20C2 20.65 2.156 21.004 2.29 21.204C2.43 21.412 2.63133 21.5813 2.894 21.712C3.23168 21.8736 3.59663 21.9706 3.97 21.998L4.02 22H28C28.65 22 29.004 21.844 29.204 21.71C29.4236 21.5569 29.5988 21.3486 29.712 21.106C29.8736 20.7683 29.9706 20.4034 29.998 20.03L30 19.98V8C30 7.35 29.844 6.996 29.71 6.796C29.5569 6.57644 29.3486 6.4012 29.106 6.288C28.753 6.11952 28.3705 6.02168 27.98 6H4C3.35 6 2.996 6.156 2.796 6.29Z" fill="#101828"/>
</symbol>
<symbol id="map" viewBox="0 0 20 20">
<path d="M19.7712 0.141029C19.8428 0.199699 19.9005 0.273527 19.94 0.357185C19.9796 0.440842 20.0001 0.53224 20 0.624779V18.1248C19.9999 18.2692 19.9498 18.4092 19.8582 18.5208C19.7666 18.6325 19.6391 18.709 19.4975 18.7373L13.2475 19.9873C13.1666 20.0034 13.0834 20.0034 13.0025 19.9873L6.875 18.7623L0.7475 19.9873C0.656861 20.0054 0.563332 20.0032 0.473651 19.9808C0.38397 19.9584 0.30037 19.9164 0.228874 19.8578C0.157378 19.7993 0.0997667 19.7255 0.0601897 19.642C0.0206127 19.5585 5.58159e-05 19.4672 0 19.3748L0 1.87478C8.72276e-05 1.73035 0.0501951 1.5904 0.141804 1.47874C0.233413 1.36708 0.360869 1.29059 0.5025 1.26228L6.7525 0.0122789C6.83337 -0.00388454 6.91663 -0.00388454 6.9975 0.0122789L13.125 1.23728L19.2525 0.0122789C19.3431 -0.00595135 19.4366 -0.00385945 19.5263 0.0184039C19.616 0.0406672 19.6997 0.0825478 19.7712 0.141029ZM12.5 2.38728L7.5 1.38728V17.6123L12.5 18.6123V2.38728ZM13.75 18.6123L18.75 17.6123V1.38728L13.75 2.38728V18.6123ZM6.25 17.6123V1.38728L1.25 2.38728V18.6123L6.25 17.6123Z"/>
</symbol>
<symbol id="ac" viewBox="0 0 32 28">
<path d="M25 2C23.6739 2 22.4021 2.52678 21.4645 3.46447C20.5268 4.40215 20 5.67392 20 7C20 7.26522 19.8946 7.51957 19.7071 7.70711C19.5196 7.89464 19.2652 8 19 8C18.7348 8 18.4804 7.89464 18.2929 7.70711C18.1054 7.51957 18 7.26522 18 7C18 5.61553 18.4105 4.26215 19.1797 3.11101C19.9489 1.95986 21.0421 1.06266 22.3212 0.532843C23.6003 0.00302917 25.0078 -0.135594 26.3656 0.134502C27.7235 0.404599 28.9708 1.07128 29.9497 2.05025C30.9287 3.02922 31.5954 4.2765 31.8655 5.63437C32.1356 6.99223 31.997 8.3997 31.4672 9.67878C30.9373 10.9579 30.0401 12.0511 28.889 12.8203C27.7378 13.5895 26.3845 14 25 14H1C0.734784 14 0.48043 13.8946 0.292893 13.7071C0.105357 13.5196 0 13.2652 0 13C0 12.7348 0.105357 12.4804 0.292893 12.2929C0.48043 12.1054 0.734784 12 1 12H25C26.3261 12 27.5979 11.4732 28.5355 10.5355C29.4732 9.59785 30 8.32608 30 7C30 5.67392 29.4732 4.40215 28.5355 3.46447C27.5979 2.52678 26.3261 2 25 2ZM11 4C10.4696 4 9.96086 4.21071 9.58579 4.58579C9.21071 4.96086 9 5.46957 9 6C9 6.26522 8.89464 6.51957 8.70711 6.70711C8.51957 6.89464 8.26522 7 8 7C7.73478 7 7.48043 6.89464 7.29289 6.70711C7.10536 6.51957 7 6.26522 7 6C7 5.20887 7.2346 4.43552 7.67412 3.77772C8.11365 3.11992 8.73836 2.60723 9.46927 2.30448C10.2002 2.00173 11.0044 1.92252 11.7804 2.07686C12.5563 2.2312 13.269 2.61216 13.8284 3.17157C14.3878 3.73098 14.7688 4.44371 14.9231 5.21964C15.0775 5.99556 14.9983 6.79983 14.6955 7.53073C14.3928 8.26164 13.8801 8.88635 13.2223 9.32588C12.5645 9.7654 11.7911 10 11 10H1C0.734784 10 0.48043 9.89464 0.292893 9.70711C0.105357 9.51957 0 9.26522 0 9C0 8.73478 0.105357 8.48043 0.292893 8.29289C0.48043 8.10536 0.734784 8 1 8H11C11.5304 8 12.0391 7.78929 12.4142 7.41421C12.7893 7.03914 13 6.53043 13 6C13 5.46957 12.7893 4.96086 12.4142 4.58579C12.0391 4.21071 11.5304 4 11 4ZM0 17C0 16.7348 0.105357 16.4804 0.292893 16.2929C0.48043 16.1054 0.734784 16 1 16H21.084C22.2707 16 23.4307 16.3519 24.4174 17.0112C25.4041 17.6705 26.1732 18.6075 26.6273 19.7039C27.0814 20.8003 27.2002 22.0067 26.9687 23.1705C26.7372 24.3344 26.1658 25.4035 25.3266 26.2426C24.4875 27.0818 23.4184 27.6532 22.2545 27.8847C21.0907 28.1162 19.8843 27.9974 18.7879 27.5433C17.6915 27.0892 16.7545 26.3201 16.0952 25.3334C15.4359 24.3467 15.084 23.1867 15.084 22C15.084 21.7348 15.1894 21.4804 15.3769 21.2929C15.5644 21.1054 15.8188 21 16.084 21C16.3492 21 16.6036 21.1054 16.7911 21.2929C16.9786 21.4804 17.084 21.7348 17.084 22C17.084 22.7911 17.3186 23.5645 17.7581 24.2223C18.1976 24.8801 18.8224 25.3928 19.5533 25.6955C20.2842 25.9983 21.0884 26.0775 21.8644 25.9231C22.6403 25.7688 23.353 25.3878 23.9124 24.8284C24.4718 24.269 24.8528 23.5563 25.0071 22.7804C25.1615 22.0044 25.0823 21.2002 24.7795 20.4693C24.4768 19.7384 23.9641 19.1136 23.3063 18.6741C22.6485 18.2346 21.8751 18 21.084 18H1C0.734784 18 0.48043 17.8946 0.292893 17.7071C0.105357 17.5196 0 17.2652 0 17Z" fill="#101828"/>
</symbol>
<symbol id="transmission" viewBox="0 0 32 32">
<path d="M12 7C12 6.20435 12.3161 5.44129 12.8787 4.87868C13.4413 4.31607 14.2044 4 15 4H17C17.7956 4 18.5587 4.31607 19.1213 4.87868C19.6839 5.44129 20 6.20435 20 7V9C20 9.79565 19.6839 10.5587 19.1213 11.1213C18.5587 11.6839 17.7956 12 17 12V14H28C28.2652 14 28.5196 14.1054 28.7071 14.2929C28.8946 14.4804 29 14.7348 29 15V17C29 17.2652 28.8946 17.5196 28.7071 17.7071C28.5196 17.8946 28.2652 18 28 18C27.7348 18 27.4804 17.8946 27.2929 17.7071C27.1054 17.5196 27 17.2652 27 17V16H17V17C17 17.2652 16.8946 17.5196 16.7071 17.7071C16.5196 17.8946 16.2652 18 16 18C15.7348 18 15.4804 17.8946 15.2929 17.7071C15.1054 17.5196 15 17.2652 15 17V16H5V17C5 17.2652 4.89464 17.5196 4.70711 17.7071C4.51957 17.8946 4.26522 18 4 18C3.73478 18 3.48043 17.8946 3.29289 17.7071C3.10536 17.5196 3 17.2652 3 17V15C3 14.7348 3.10536 14.4804 3.29289 14.2929C3.48043 14.1054 3.73478 14 4 14H15V12C14.2044 12 13.4413 11.6839 12.8787 11.1213C12.3161 10.5587 12 9.79565 12 9V7ZM17 10C17.2652 10 17.5196 9.89464 17.7071 9.70711C17.8946 9.51957 18 9.26522 18 9V7C18 6.73478 17.8946 6.48043 17.7071 6.29289C17.5196 6.10536 17.2652 6 17 6H15C14.7348 6 14.4804 6.10536 14.2929 6.29289C14.1054 6.48043 14 6.73478 14 7V9C14 9.26522 14.1054 9.51957 14.2929 9.70711C14.4804 9.89464 14.7348 10 15 10H17ZM0 23C0 22.2044 0.31607 21.4413 0.87868 20.8787C1.44129 20.3161 2.20435 20 3 20H5C5.79565 20 6.55871 20.3161 7.12132 20.8787C7.68393 21.4413 8 22.2044 8 23V25C8 25.7956 7.68393 26.5587 7.12132 27.1213C6.55871 27.6839 5.79565 28 5 28H3C2.20435 28 1.44129 27.6839 0.87868 27.1213C0.31607 26.5587 0 25.7956 0 25L0 23ZM3 22C2.73478 22 2.48043 22.1054 2.29289 22.2929C2.10536 22.4804 2 22.7348 2 23V25C2 25.2652 2.10536 25.5196 2.29289 25.7071C2.48043 25.8946 2.73478 26 3 26H5C5.26522 26 5.51957 25.8946 5.70711 25.7071C5.89464 25.5196 6 25.2652 6 25V23C6 22.7348 5.89464 22.4804 5.70711 22.2929C5.51957 22.1054 5.26522 22 5 22H3ZM12 23C12 22.2044 12.3161 21.4413 12.8787 20.8787C13.4413 20.3161 14.2044 20 15 20H17C17.7956 20 18.5587 20.3161 19.1213 20.8787C19.6839 21.4413 20 22.2044 20 23V25C20 25.7956 19.6839 26.5587 19.1213 27.1213C18.5587 27.6839 17.7956 28 17 28H15C14.2044 28 13.4413 27.6839 12.8787 27.1213C12.3161 26.5587 12 25.7956 12 25V23ZM15 22C14.7348 22 14.4804 22.1054 14.2929 22.2929C14.1054 22.4804 14 22.7348 14 23V25C14 25.2652 14.1054 25.5196 14.2929 25.7071C14.4804 25.8946 14.7348 26 15 26H17C17.2652 26 17.5196 25.8946 17.7071 25.7071C17.8946 25.5196 18 25.2652 18 25V23C18 22.7348 17.8946 22.4804 17.7071 22.2929C17.5196 22.1054 17.2652 22 17 22H15ZM24 23C24 22.2044 24.3161 21.4413 24.8787 20.8787C25.4413 20.3161 26.2044 20 27 20H29C29.7956 20 30.5587 20.3161 31.1213 20.8787C31.6839 21.4413 32 22.2044 32 23V25C32 25.7956 31.6839 26.5587 31.1213 27.1213C30.5587 27.6839 29.7956 28 29 28H27C26.2044 28 25.4413 27.6839 24.8787 27.1213C24.3161 26.5587 24 25.7956 24 25V23ZM27 22C26.7348 22 26.4804 22.1054 26.2929 22.2929C26.1054 22.4804 26 22.7348 26 23V25C26 25.2652 26.1054 25.5196 26.2929 25.7071C26.4804 25.8946 26.7348 26 27 26H29C29.2652 26 29.5196 25.8946 29.7071 25.7071C29.8946 25.5196 30 25.2652 30 25V23C30 22.7348 29.8946 22.4804 29.7071 22.2929C29.5196 22.1054 29.2652 22 29 22H27Z" fill="#101828"/>
</symbol>
<symbol id="kitchen" viewBox="0 0 33 32">
<path d="M1.50009 12C1.35046 12.0001 1.20275 12.0337 1.06784 12.0984C0.93294 12.1632 0.814284 12.2574 0.720622 12.3741C0.626959 12.4907 0.560679 12.627 0.526666 12.7727C0.492653 12.9184 0.491774 13.0699 0.524095 13.216L3.82809 28.084C4.07472 29.1945 4.69264 30.1877 5.57986 30.8997C6.46707 31.6116 7.57054 31.9998 8.7081 32H20.2921C21.4297 31.9998 22.5331 31.6116 23.4203 30.8997C24.3076 30.1877 24.9255 29.1945 25.1721 28.084L25.4341 26.904C26.9639 27.1901 28.5451 26.8706 29.8438 26.0129C31.1425 25.1552 32.0571 23.8264 32.3945 22.307C32.7319 20.7876 32.4657 19.1966 31.6521 17.8698C30.8386 16.543 29.5413 15.5843 28.0341 15.196L28.4761 13.216C28.5084 13.0699 28.5075 12.9184 28.4735 12.7727C28.4395 12.627 28.3732 12.4907 28.2796 12.3741C28.1859 12.2574 28.0673 12.1632 27.9323 12.0984C27.7974 12.0337 27.6497 12.0001 27.5001 12H1.50009ZM26.5001 25C26.2884 25.0001 26.0771 24.9834 25.8681 24.95L27.6021 17.154C28.5271 17.4219 29.3245 18.0144 29.8479 18.8227C30.3714 19.631 30.5858 20.601 30.4518 21.5546C30.3179 22.5083 29.8446 23.3817 29.1187 24.0145C28.3928 24.6474 27.4631 24.9973 26.5001 25ZM5.7801 27.65L2.74609 14H26.2541L23.2201 27.65C23.0722 28.3164 22.7015 28.9124 22.1691 29.3396C21.6368 29.7669 20.9747 29.9998 20.2921 30H8.7081C8.02551 29.9998 7.36338 29.7669 6.83105 29.3396C6.29871 28.9124 5.92799 28.3164 5.7801 27.65Z" fill="#101828"/>
<path d="M9.3 1.6L9.294 1.608L9.266 1.646C9.12048 1.84624 8.98433 2.05313 8.858 2.266C8.75068 2.43664 8.65641 2.61515 8.576 2.8C8.524 2.92 8.508 2.984 8.502 3.006V3.014C8.52506 3.1908 8.58724 3.36024 8.684 3.51C8.834 3.776 9.04 4.054 9.3 4.4L9.32 4.424C9.556 4.74 9.84 5.118 10.06 5.51C10.284 5.91 10.5 6.42 10.5 7C10.5 7.376 10.37 7.736 10.262 7.988C10.1464 8.25615 10.0114 8.51551 9.858 8.764C9.7011 9.02626 9.53225 9.2812 9.352 9.528L9.316 9.578L9.306 9.594L9.302 9.598C9.14314 9.81044 8.90639 9.95106 8.64384 9.98895C8.38129 10.0268 8.11444 9.95886 7.902 9.8C7.68956 9.64113 7.54893 9.40438 7.51105 9.14183C7.47317 8.87928 7.54114 8.61244 7.7 8.4L7.706 8.392L7.734 8.354C7.87952 8.15375 8.01567 7.94687 8.142 7.734C8.24932 7.56336 8.34359 7.38485 8.424 7.2C8.476 7.08 8.492 7.016 8.498 6.994C8.47671 6.81459 8.41517 6.64231 8.318 6.49C8.13235 6.17971 7.92588 5.88236 7.7 5.6L7.68 5.576C7.40979 5.23062 7.16259 4.86783 6.94 4.49C6.66759 4.03945 6.51604 3.52625 6.5 3C6.5 2.624 6.63 2.264 6.738 2.012C6.856 1.736 7.006 1.464 7.142 1.236C7.30088 0.974982 7.46967 0.72013 7.648 0.471998L7.698 0.401998C7.85686 0.18956 8.09361 0.0489314 8.35616 0.0110491C8.61872 -0.0268333 8.88556 0.0411339 9.098 0.199999C9.31044 0.358863 9.45107 0.595612 9.48895 0.858163C9.52683 1.12071 9.45886 1.38756 9.3 1.6ZM15.3 1.6L15.294 1.608L15.266 1.646C15.1205 1.84624 14.9843 2.05313 14.858 2.266C14.7507 2.43664 14.6564 2.61515 14.576 2.8C14.524 2.92 14.508 2.984 14.502 3.006V3.014C14.5251 3.1908 14.5872 3.36024 14.684 3.51C14.834 3.776 15.04 4.054 15.3 4.4L15.32 4.424C15.556 4.74 15.84 5.118 16.06 5.51C16.284 5.91 16.5 6.42 16.5 7C16.5 7.376 16.37 7.736 16.262 7.988C16.1464 8.25615 16.0114 8.51551 15.858 8.764C15.7011 9.02626 15.5323 9.2812 15.352 9.528L15.316 9.578L15.306 9.594L15.302 9.598C15.1431 9.81044 14.9064 9.95106 14.6438 9.98895C14.3813 10.0268 14.1144 9.95886 13.902 9.8C13.6896 9.64113 13.5489 9.40438 13.5111 9.14183C13.4732 8.87928 13.5411 8.61244 13.7 8.4L13.706 8.392L13.734 8.354C13.8795 8.15375 14.0157 7.94687 14.142 7.734C14.2493 7.56336 14.3436 7.38485 14.424 7.2C14.476 7.08 14.492 7.016 14.498 6.994C14.4767 6.81459 14.4152 6.64231 14.318 6.49C14.1323 6.17971 13.9259 5.88236 13.7 5.6L13.68 5.576C13.4098 5.23062 13.1626 4.86783 12.94 4.49C12.6676 4.03945 12.516 3.52625 12.5 3C12.5 2.624 12.63 2.264 12.738 2.012C12.856 1.736 13.006 1.464 13.142 1.236C13.3009 0.974982 13.4697 0.72013 13.648 0.471998L13.698 0.401998C13.8569 0.18956 14.0936 0.0489314 14.3562 0.011049C14.6187 -0.0268333 14.8856 0.0411339 15.098 0.199999C15.3104 0.358863 15.4511 0.595612 15.4889 0.858163C15.5268 1.12071 15.4589 1.38756 15.3 1.6ZM21.3 1.6L21.294 1.608L21.266 1.646C21.1205 1.84624 20.9843 2.05313 20.858 2.266C20.7507 2.43664 20.6564 2.61515 20.576 2.8C20.524 2.92 20.508 2.984 20.502 3.006V3.014C20.5251 3.1908 20.5872 3.36024 20.684 3.51C20.834 3.776 21.04 4.054 21.3 4.4L21.32 4.424C21.556 4.74 21.84 5.118 22.06 5.51C22.284 5.91 22.5 6.42 22.5 7C22.5 7.376 22.37 7.736 22.262 7.988C22.1464 8.25615 22.0114 8.51551 21.858 8.764C21.7017 9.02622 21.5336 9.28116 21.354 9.528L21.316 9.578L21.306 9.594L21.302 9.598C21.1431 9.81044 20.9064 9.95106 20.6438 9.98895C20.3813 10.0268 20.1144 9.95886 19.902 9.8C19.6896 9.64113 19.5489 9.40438 19.5111 9.14183C19.4732 8.87928 19.5411 8.61244 19.7 8.4L19.706 8.392L19.734 8.354C19.8795 8.15375 20.0157 7.94687 20.142 7.734C20.2493 7.56336 20.3436 7.38485 20.424 7.2C20.476 7.08 20.492 7.016 20.498 6.994C20.4767 6.81459 20.4152 6.64231 20.318 6.49C20.1324 6.17971 19.9259 5.88236 19.7 5.6L19.68 5.576C19.4098 5.23062 19.1626 4.86783 18.94 4.49C18.6676 4.03945 18.516 3.52625 18.5 3C18.5 2.624 18.63 2.264 18.738 2.012C18.856 1.736 19.006 1.464 19.142 1.236C19.3009 0.974982 19.4697 0.72013 19.648 0.471998L19.698 0.401998C19.8569 0.18956 20.0936 0.0489314 20.3562 0.011049C20.6187 -0.0268333 20.8856 0.0411339 21.098 0.199999C21.3104 0.358863 21.4511 0.595612 21.4889 0.858163C21.5268 1.12071 21.4589 1.38756 21.3 1.6Z" fill="#101828"/>
</symbol>
<symbol id="bathroom" viewBox="0 0 32 32">
<path d="M14.42 1.6C15.38 0.59 16 0 16 0C16.2187 0.725333 16.466 1.41733 16.742 2.076C18.366 5.968 20.888 8.776 23.136 11.276C25.756 14.192 28 16.69 28 20C28 23.1826 26.7357 26.2348 24.4853 28.4853C22.2348 30.7357 19.1826 32 16 32C12.8174 32 9.76515 30.7357 7.51472 28.4853C5.26428 26.2348 4 23.1826 4 20C4 13.336 11.16 5.034 14.42 1.6ZM15.246 3.642C13.9611 5.03141 12.7405 6.47893 11.588 7.98C10.136 9.88 8.716 11.996 7.668 14.12C6.608 16.266 6 18.276 6 20C6 22.6522 7.05357 25.1957 8.92893 27.0711C10.8043 28.9464 13.3478 30 16 30C18.6522 30 21.1957 28.9464 23.0711 27.0711C24.9464 25.1957 26 22.6522 26 20C26 17.598 24.408 15.686 21.638 12.6L21.578 12.536C19.5 10.22 17 7.442 15.246 3.642Z" fill="#101828"/>
<path d="M9.10596 15.552C10.746 12.27 12.54 10.046 13.292 9.29199L14.708 10.708C14.128 11.288 12.452 13.33 10.894 16.448L9.10596 15.552Z" fill="#101828"/>
</symbol>
<symbol id="van" viewBox="0 0 32 32">
<path d="M12 2H2V30H12V2ZM30 2H20V12H30V2ZM30 20V30H20V20H30ZM0 2C0 1.46957 0.210714 0.960859 0.585786 0.585786C0.960859 0.210714 1.46957 0 2 0L12 0C12.5304 0 13.0391 0.210714 13.4142 0.585786C13.7893 0.960859 14 1.46957 14 2V30C14 30.5304 13.7893 31.0391 13.4142 31.4142C13.0391 31.7893 12.5304 32 12 32H2C1.46957 32 0.960859 31.7893 0.585786 31.4142C0.210714 31.0391 0 30.5304 0 30V2ZM18 2C18 1.46957 18.2107 0.960859 18.5858 0.585786C18.9609 0.210714 19.4696 0 20 0L30 0C30.5304 0 31.0391 0.210714 31.4142 0.585786C31.7893 0.960859 32 1.46957 32 2V12C32 12.5304 31.7893 13.0391 31.4142 13.4142C31.0391 13.7893 30.5304 14 30 14H20C19.4696 14 18.9609 13.7893 18.5858 13.4142C18.2107 13.0391 18 12.5304 18 12V2ZM20 18C19.4696 18 18.9609 18.2107 18.5858 18.5858C18.2107 18.9609 18 19.4696 18 20V30C18 30.5304 18.2107 31.0391 18.5858 31.4142C18.9609 31.7893 19.4696 32 20 32H30C30.5304 32 31.0391 31.7893 31.4142 31.4142C31.7893 31.0391 32 30.5304 32 30V20C32 19.4696 31.7893 18.9609 31.4142 18.5858C31.0391 18.2107 30.5304 18 30 18H20Z" fill="#101828"/>
</symbol>
<symbol id="fullIntegrated" viewBox="0 0 32 32" >
<path d="M2 5C2 4.20435 2.31607 3.44129 2.87868 2.87868C3.44129 2.31607 4.20435 2 5 2H11C11.7956 2 12.5587 2.31607 13.1213 2.87868C13.6839 3.44129 14 4.20435 14 5V11C14 11.7956 13.6839 12.5587 13.1213 13.1213C12.5587 13.6839 11.7956 14 11 14H5C4.20435 14 3.44129 13.6839 2.87868 13.1213C2.31607 12.5587 2 11.7956 2 11V5ZM5 4C4.73478 4 4.48043 4.10536 4.29289 4.29289C4.10536 4.48043 4 4.73478 4 5V11C4 11.2652 4.10536 11.5196 4.29289 11.7071C4.48043 11.8946 4.73478 12 5 12H11C11.2652 12 11.5196 11.8946 11.7071 11.7071C11.8946 11.5196 12 11.2652 12 11V5C12 4.73478 11.8946 4.48043 11.7071 4.29289C11.5196 4.10536 11.2652 4 11 4H5ZM18 5C18 4.20435 18.3161 3.44129 18.8787 2.87868C19.4413 2.31607 20.2044 2 21 2H27C27.7956 2 28.5587 2.31607 29.1213 2.87868C29.6839 3.44129 30 4.20435 30 5V11C30 11.7956 29.6839 12.5587 29.1213 13.1213C28.5587 13.6839 27.7956 14 27 14H21C20.2044 14 19.4413 13.6839 18.8787 13.1213C18.3161 12.5587 18 11.7956 18 11V5ZM21 4C20.7348 4 20.4804 4.10536 20.2929 4.29289C20.1054 4.48043 20 4.73478 20 5V11C20 11.2652 20.1054 11.5196 20.2929 11.7071C20.4804 11.8946 20.7348 12 21 12H27C27.2652 12 27.5196 11.8946 27.7071 11.7071C27.8946 11.5196 28 11.2652 28 11V5C28 4.73478 27.8946 4.48043 27.7071 4.29289C27.5196 4.10536 27.2652 4 27 4H21ZM2 21C2 20.2044 2.31607 19.4413 2.87868 18.8787C3.44129 18.3161 4.20435 18 5 18H11C11.7956 18 12.5587 18.3161 13.1213 18.8787C13.6839 19.4413 14 20.2044 14 21V27C14 27.7956 13.6839 28.5587 13.1213 29.1213C12.5587 29.6839 11.7956 30 11 30H5C4.20435 30 3.44129 29.6839 2.87868 29.1213C2.31607 28.5587 2 27.7956 2 27V21ZM5 20C4.73478 20 4.48043 20.1054 4.29289 20.2929C4.10536 20.4804 4 20.7348 4 21V27C4 27.2652 4.10536 27.5196 4.29289 27.7071C4.48043 27.8946 4.73478 28 5 28H11C11.2652 28 11.5196 27.8946 11.7071 27.7071C11.8946 27.5196 12 27.2652 12 27V21C12 20.7348 11.8946 20.4804 11.7071 20.2929C11.5196 20.1054 11.2652 20 11 20H5ZM18 21C18 20.2044 18.3161 19.4413 18.8787 18.8787C19.4413 18.3161 20.2044 18 21 18H27C27.7956 18 28.5587 18.3161 29.1213 18.8787C29.6839 19.4413 30 20.2044 30 21V27C30 27.7956 29.6839 28.5587 29.1213 29.1213C28.5587 29.6839 27.7956 30 27 30H21C20.2044 30 19.4413 29.6839 18.8787 29.1213C18.3161 28.5587 18 27.7956 18 27V21ZM21 20C20.7348 20 20.4804 20.1054 20.2929 20.2929C20.1054 20.4804 20 20.7348 20 21V27C20 27.2652 20.1054 27.5196 20.2929 27.7071C20.4804 27.8946 20.7348 28 21 28H27C27.2652 28 27.5196 27.8946 27.7071 27.7071C27.8946 27.5196 28 27.2652 28 27V21C28 20.7348 27.8946 20.4804 27.7071 20.2929C27.5196 20.1054 27.2652 20 27 20H21Z" fill="#101828"/>
</symbol>
<symbol id="alcove" viewBox="0 0 32 32">
<path d="M8 4V8H4V4H8ZM10 28V24C10 23.4696 9.78929 22.9609 9.41421 22.5858C9.03914 22.2107 8.53043 22 8 22H4C3.46957 22 2.96086 22.2107 2.58579 22.5858C2.21071 22.9609 2 23.4696 2 24V28C2 28.5304 2.21071 29.0391 2.58579 29.4142C2.96086 29.7893 3.46957 30 4 30H8C8.53043 30 9.03914 29.7893 9.41421 29.4142C9.78929 29.0391 10 28.5304 10 28ZM10 18V14C10 13.4696 9.78929 12.9609 9.41421 12.5858C9.03914 12.2107 8.53043 12 8 12H4C3.46957 12 2.96086 12.2107 2.58579 12.5858C2.21071 12.9609 2 13.4696 2 14V18C2 18.5304 2.21071 19.0391 2.58579 19.4142C2.96086 19.7893 3.46957 20 4 20H8C8.53043 20 9.03914 19.7893 9.41421 19.4142C9.78929 19.0391 10 18.5304 10 18ZM10 8V4C10 3.46957 9.78929 2.96086 9.41421 2.58579C9.03914 2.21071 8.53043 2 8 2H4C3.46957 2 2.96086 2.21071 2.58579 2.58579C2.21071 2.96086 2 3.46957 2 4V8C2 8.53043 2.21071 9.03914 2.58579 9.41421C2.96086 9.78929 3.46957 10 4 10H8C8.53043 10 9.03914 9.78929 9.41421 9.41421C9.78929 9.03914 10 8.53043 10 8ZM20 28V24C20 23.4696 19.7893 22.9609 19.4142 22.5858C19.0391 22.2107 18.5304 22 18 22H14C13.4696 22 12.9609 22.2107 12.5858 22.5858C12.2107 22.9609 12 23.4696 12 24V28C12 28.5304 12.2107 29.0391 12.5858 29.4142C12.9609 29.7893 13.4696 30 14 30H18C18.5304 30 19.0391 29.7893 19.4142 29.4142C19.7893 29.0391 20 28.5304 20 28ZM20 18V14C20 13.4696 19.7893 12.9609 19.4142 12.5858C19.0391 12.2107 18.5304 12 18 12H14C13.4696 12 12.9609 12.2107 12.5858 12.5858C12.2107 12.9609 12 13.4696 12 14V18C12 18.5304 12.2107 19.0391 12.5858 19.4142C12.9609 19.7893 13.4696 20 14 20H18C18.5304 20 19.0391 19.7893 19.4142 19.4142C19.7893 19.0391 20 18.5304 20 18ZM20 8V4C20 3.46957 19.7893 2.96086 19.4142 2.58579C19.0391 2.21071 18.5304 2 18 2H14C13.4696 2 12.9609 2.21071 12.5858 2.58579C12.2107 2.96086 12 3.46957 12 4V8C12 8.53043 12.2107 9.03914 12.5858 9.41421C12.9609 9.78929 13.4696 10 14 10H18C18.5304 10 19.0391 9.78929 19.4142 9.41421C19.7893 9.03914 20 8.53043 20 8ZM18 4V8H14V4H18ZM28 4V8H24V4H28ZM8 14V18H4V14H8ZM18 14V18H14V14H18ZM28 14H24V18H28V14ZM8 24V28H4V24H8ZM18 24V28H14V24H18ZM28 24V28H24V24H28ZM24 2C23.4696 2 22.9609 2.21071 22.5858 2.58579C22.2107 2.96086 22 3.46957 22 4V8C22 8.53043 22.2107 9.03914 22.5858 9.41421C22.9609 9.78929 23.4696 10 24 10H28C28.5304 10 29.0391 9.78929 29.4142 9.41421C29.7893 9.03914 30 8.53043 30 8V4C30 3.46957 29.7893 2.96086 29.4142 2.58579C29.0391 2.21071 28.5304 2 28 2H24ZM22 14C22 13.4696 22.2107 12.9609 22.5858 12.5858C22.9609 12.2107 23.4696 12 24 12H28C28.5304 12 29.0391 12.2107 29.4142 12.5858C29.7893 12.9609 30 13.4696 30 14V18C30 18.5304 29.7893 19.0391 29.4142 19.4142C29.0391 19.7893 28.5304 20 28 20H24C23.4696 20 22.9609 19.7893 22.5858 19.4142C22.2107 19.0391 22 18.5304 22 18V14ZM24 22C23.4696 22 22.9609 22.2107 22.5858 22.5858C22.2107 22.9609 22 23.4696 22 24V28C22 28.5304 22.2107 29.0391 22.5858 29.4142C22.9609 29.7893 23.4696 30 24 30H28C28.5304 30 29.0391 29.7893 29.4142 29.4142C29.7893 29.0391 30 28.5304 30 28V24C30 23.4696 29.7893 22.9609 29.4142 22.5858C29.0391 22.2107 28.5304 22 28 22H24Z" fill="#101828"/>
</symbol>



</defs>
</svg>